<svg width="502" height="502" viewBox="0 0 502 502" fill="none" xmlns="http://www.w3.org/2000/svg">
<g clip-path="url(#clip0_135_7285)">
<rect width="502" height="502" fill="white"/>
<path d="M104.353 383V251V97H162.353V162.6C162.353 167.933 162.086 173.533 161.553 179.4C161.286 185.267 160.62 191.267 159.553 197.4C158.753 203.267 157.82 209.267 156.753 215.4C155.953 221.533 155.02 227.667 153.953 233.8H162.753C166.486 220.2 171.153 208.467 176.753 198.6C182.62 188.733 190.086 181.133 199.153 175.8C208.22 170.2 219.686 167.4 233.553 167.4C258.086 167.4 276.486 176.067 288.753 193.4C301.02 210.467 307.153 236.733 307.153 272.2V383H249.153V281C249.153 258.6 245.82 242.067 239.153 231.4C232.753 220.467 223.02 215 209.953 215C199.286 215 190.486 218.2 183.553 224.6C176.62 231 171.42 239.667 167.953 250.6C164.486 261.267 162.486 273.267 161.953 286.6V383H104.353Z" fill="#615FFF"/>
<path d="M377.088 388.2C364.554 388.2 355.088 385.533 348.688 380.2C342.554 374.867 339.488 366.6 339.488 355.4C339.488 343.933 342.554 335.533 348.688 330.2C355.088 324.867 364.554 322.2 377.088 322.2C389.888 322.2 399.354 324.867 405.488 330.2C411.888 335.533 415.088 343.933 415.088 355.4C415.088 377.267 402.421 388.2 377.088 388.2Z" fill="#00BBA7"/>
</g>
<defs>
<clipPath id="clip0_135_7285">
<rect width="502" height="502" fill="white"/>
</clipPath>
</defs>
</svg>
